<svg xmlns="http://www.w3.org/2000/svg">
    <symbol id="arrow-down" viewBox="0 0 64 64">
        <path d="M55.67 32.96L32.92 62.53c-.23.3-.6.47-.96.47-.38 0-.73-.17-.96-.47L8.25 32.96c-.17-.22-.25-.47-.25-.73s.08-.52.24-.73c.33-.43.9-.6 1.4-.4l15.08 5.95V2.2c0-.66.53-1.2 1.2-1.2H38c.66 0 1.2.54 1.2 1.2v34.85l15.06-5.95c.5-.2 1.1-.03 1.4.4.34.43.34 1.03 0 1.46z"/>
    </symbol>
    <symbol id="arrow-up" viewBox="0 0 64 64">
        <path d="M32.04 1c.38 0 .73.17.96.47l22.75 29.57c.17.2.25.47.25.73s-.08.5-.24.73c-.33.43-.9.6-1.4.4l-15.08-5.95V61.8c0 .66-.54 1.2-1.2 1.2H26c-.66 0-1.2-.54-1.2-1.2V26.94L9.73 32.9c-.5.2-1.08.03-1.4-.4-.33-.43-.33-1.03 0-1.46L31.08 1.47c.23-.3.6-.47.96-.47z"/>
    </symbol>
    <symbol id="minus" viewBox="0 0 64 64">
        <path d="M63 24.93v14.14c0 1.07-.72 1.93-1.6 1.93H2.6c-.88 0-1.6-.86-1.6-1.93V24.93C1 23.86 1.72 23 2.6 23h58.8c.88 0 1.6.86 1.6 1.93z"/>
    </symbol>
</svg>
